<svg width="212" height="14" viewBox="0 0 212 14" fill="none" xmlns="http://www.w3.org/2000/svg">
<path d="M9.09 13L8.46 11.02H3.78L3.15 13H0L4.284 0.399999H7.956L12.24 13H9.09ZM4.644 8.32H7.596L6.12 3.694L4.644 8.32ZM36.6544 0.399999H39.5344V13H36.6544V7.996H32.6944V13H29.8144V0.399999H32.6944V5.224H36.6544V0.399999ZM47.6972 0.399999H50.5772V13H47.6972V0.399999ZM68.9301 13H65.6541L61.6221 7.168V13H58.7421V0.399999H61.6221V5.872L65.4741 0.399999H68.7501L64.5021 6.538L68.9301 13ZM76.0097 0.399999H78.8897V13H76.0097V0.399999ZM94.0746 0.399999H96.9546V13H94.7946L89.9346 6.16V13H87.0546V0.399999H89.2146L94.0746 7.24V0.399999ZM117.587 5.98V7.06C117.587 8.944 116.999 10.45 115.823 11.578C114.659 12.694 113.177 13.252 111.377 13.252C109.421 13.252 107.795 12.622 106.499 11.362C105.215 10.102 104.573 8.554 104.573 6.718C104.573 4.882 105.209 3.328 106.481 2.056C107.765 0.783999 109.331 0.147999 111.179 0.147999C112.355 0.147999 113.429 0.411999 114.401 0.94C115.385 1.468 116.147 2.164 116.687 3.028L114.239 4.432C113.963 4 113.549 3.646 112.997 3.37C112.457 3.094 111.845 2.956 111.161 2.956C110.093 2.956 109.205 3.31 108.497 4.018C107.801 4.726 107.453 5.632 107.453 6.736C107.453 7.828 107.813 8.722 108.533 9.418C109.253 10.102 110.213 10.444 111.413 10.444C113.081 10.444 114.155 9.796 114.635 8.5H111.269V5.98H117.587ZM148.185 5.98V7.06C148.185 8.944 147.597 10.45 146.421 11.578C145.257 12.694 143.775 13.252 141.975 13.252C140.019 13.252 138.393 12.622 137.097 11.362C135.813 10.102 135.171 8.554 135.171 6.718C135.171 4.882 135.807 3.328 137.079 2.056C138.363 0.783999 139.929 0.147999 141.777 0.147999C142.953 0.147999 144.027 0.411999 144.999 0.94C145.983 1.468 146.745 2.164 147.285 3.028L144.837 4.432C144.561 4 144.147 3.646 143.595 3.37C143.055 3.094 142.443 2.956 141.759 2.956C140.691 2.956 139.803 3.31 139.095 4.018C138.399 4.726 138.051 5.632 138.051 6.736C138.051 7.828 138.411 8.722 139.131 9.418C139.851 10.102 140.811 10.444 142.011 10.444C143.679 10.444 144.753 9.796 145.233 8.5H141.867V5.98H148.185ZM163.983 12.082C163.071 12.862 161.907 13.252 160.491 13.252C159.075 13.252 157.911 12.862 156.999 12.082C156.087 11.302 155.631 10.252 155.631 8.932V0.399999H158.511V8.68C158.511 9.856 159.171 10.444 160.491 10.444C161.811 10.444 162.471 9.856 162.471 8.68V0.399999H165.351V8.932C165.351 10.252 164.895 11.302 163.983 12.082ZM173.428 0.399999H176.308V13H173.428V0.399999ZM189.513 0.399999C191.253 0.399999 192.705 1.006 193.869 2.218C195.045 3.418 195.633 4.912 195.633 6.7C195.633 8.488 195.045 9.988 193.869 11.2C192.705 12.4 191.253 13 189.513 13H184.473V0.399999H189.513ZM189.513 10.228C190.509 10.228 191.313 9.91 191.925 9.274C192.549 8.626 192.861 7.768 192.861 6.7C192.861 5.632 192.549 4.78 191.925 4.144C191.313 3.496 190.509 3.172 189.513 3.172H187.353V10.228H189.513ZM206.132 10.228H211.172V13H203.252V0.399999H211.082V3.172H206.132V5.26H210.632V7.996H206.132V10.228Z" fill="#FBD784"/>
</svg>
